<?xml version="1.0" encoding="utf-8"?>
<svg xmlns="http://www.w3.org/2000/svg" xmlns:xlink="http://www.w3.org/1999/xlink" style="margin: auto;  display: block; shape-rendering: auto;" width="100%" height="100%" viewBox="0 0 100 100" preserveAspectRatio="xMidYMid">
<g transform="rotate(0 50 50)">
  <rect x="42.5" y="22.5" rx="7.5" ry="7.5" width="15" height="15" fill="#96aec0">
    <animate attributeName="opacity" values="1;0" keyTimes="0;1" dur="1s" begin="-0.9666666666666667s" repeatCount="indefinite"></animate>
  </rect>
</g><g transform="rotate(12 50 50)">
  <rect x="42.5" y="22.5" rx="7.5" ry="7.5" width="15" height="15" fill="#96aec0">
    <animate attributeName="opacity" values="1;0" keyTimes="0;1" dur="1s" begin="-0.9333333333333333s" repeatCount="indefinite"></animate>
  </rect>
</g><g transform="rotate(24 50 50)">
  <rect x="42.5" y="22.5" rx="7.5" ry="7.5" width="15" height="15" fill="#96aec0">
    <animate attributeName="opacity" values="1;0" keyTimes="0;1" dur="1s" begin="-0.9s" repeatCount="indefinite"></animate>
  </rect>
</g><g transform="rotate(36 50 50)">
  <rect x="42.5" y="22.5" rx="7.5" ry="7.5" width="15" height="15" fill="#96aec0">
    <animate attributeName="opacity" values="1;0" keyTimes="0;1" dur="1s" begin="-0.8666666666666667s" repeatCount="indefinite"></animate>
  </rect>
</g><g transform="rotate(48 50 50)">
  <rect x="42.5" y="22.5" rx="7.5" ry="7.5" width="15" height="15" fill="#96aec0">
    <animate attributeName="opacity" values="1;0" keyTimes="0;1" dur="1s" begin="-0.8333333333333334s" repeatCount="indefinite"></animate>
  </rect>
</g><g transform="rotate(60 50 50)">
  <rect x="42.5" y="22.5" rx="7.5" ry="7.5" width="15" height="15" fill="#96aec0">
    <animate attributeName="opacity" values="1;0" keyTimes="0;1" dur="1s" begin="-0.8s" repeatCount="indefinite"></animate>
  </rect>
</g><g transform="rotate(72 50 50)">
  <rect x="42.5" y="22.5" rx="7.5" ry="7.5" width="15" height="15" fill="#96aec0">
    <animate attributeName="opacity" values="1;0" keyTimes="0;1" dur="1s" begin="-0.7666666666666667s" repeatCount="indefinite"></animate>
  </rect>
</g><g transform="rotate(84 50 50)">
  <rect x="42.5" y="22.5" rx="7.5" ry="7.5" width="15" height="15" fill="#96aec0">
    <animate attributeName="opacity" values="1;0" keyTimes="0;1" dur="1s" begin="-0.7333333333333333s" repeatCount="indefinite"></animate>
  </rect>
</g><g transform="rotate(96 50 50)">
  <rect x="42.5" y="22.5" rx="7.5" ry="7.5" width="15" height="15" fill="#96aec0">
    <animate attributeName="opacity" values="1;0" keyTimes="0;1" dur="1s" begin="-0.7s" repeatCount="indefinite"></animate>
  </rect>
</g><g transform="rotate(108 50 50)">
  <rect x="42.5" y="22.5" rx="7.5" ry="7.5" width="15" height="15" fill="#96aec0">
    <animate attributeName="opacity" values="1;0" keyTimes="0;1" dur="1s" begin="-0.6666666666666666s" repeatCount="indefinite"></animate>
  </rect>
</g><g transform="rotate(120 50 50)">
  <rect x="42.5" y="22.5" rx="7.5" ry="7.5" width="15" height="15" fill="#96aec0">
    <animate attributeName="opacity" values="1;0" keyTimes="0;1" dur="1s" begin="-0.6333333333333333s" repeatCount="indefinite"></animate>
  </rect>
</g><g transform="rotate(132 50 50)">
  <rect x="42.5" y="22.5" rx="7.5" ry="7.5" width="15" height="15" fill="#96aec0">
    <animate attributeName="opacity" values="1;0" keyTimes="0;1" dur="1s" begin="-0.6s" repeatCount="indefinite"></animate>
  </rect>
</g><g transform="rotate(144 50 50)">
  <rect x="42.5" y="22.5" rx="7.5" ry="7.5" width="15" height="15" fill="#96aec0">
    <animate attributeName="opacity" values="1;0" keyTimes="0;1" dur="1s" begin="-0.5666666666666667s" repeatCount="indefinite"></animate>
  </rect>
</g><g transform="rotate(156 50 50)">
  <rect x="42.5" y="22.5" rx="7.5" ry="7.5" width="15" height="15" fill="#96aec0">
    <animate attributeName="opacity" values="1;0" keyTimes="0;1" dur="1s" begin="-0.5333333333333333s" repeatCount="indefinite"></animate>
  </rect>
</g><g transform="rotate(168 50 50)">
  <rect x="42.5" y="22.5" rx="7.5" ry="7.5" width="15" height="15" fill="#96aec0">
    <animate attributeName="opacity" values="1;0" keyTimes="0;1" dur="1s" begin="-0.5s" repeatCount="indefinite"></animate>
  </rect>
</g><g transform="rotate(180 50 50)">
  <rect x="42.5" y="22.5" rx="7.5" ry="7.5" width="15" height="15" fill="#96aec0">
    <animate attributeName="opacity" values="1;0" keyTimes="0;1" dur="1s" begin="-0.4666666666666667s" repeatCount="indefinite"></animate>
  </rect>
</g><g transform="rotate(192 50 50)">
  <rect x="42.5" y="22.5" rx="7.5" ry="7.5" width="15" height="15" fill="#96aec0">
    <animate attributeName="opacity" values="1;0" keyTimes="0;1" dur="1s" begin="-0.43333333333333335s" repeatCount="indefinite"></animate>
  </rect>
</g><g transform="rotate(204 50 50)">
  <rect x="42.5" y="22.5" rx="7.5" ry="7.5" width="15" height="15" fill="#96aec0">
    <animate attributeName="opacity" values="1;0" keyTimes="0;1" dur="1s" begin="-0.4s" repeatCount="indefinite"></animate>
  </rect>
</g><g transform="rotate(216 50 50)">
  <rect x="42.5" y="22.5" rx="7.5" ry="7.5" width="15" height="15" fill="#96aec0">
    <animate attributeName="opacity" values="1;0" keyTimes="0;1" dur="1s" begin="-0.36666666666666664s" repeatCount="indefinite"></animate>
  </rect>
</g><g transform="rotate(228 50 50)">
  <rect x="42.5" y="22.5" rx="7.5" ry="7.5" width="15" height="15" fill="#96aec0">
    <animate attributeName="opacity" values="1;0" keyTimes="0;1" dur="1s" begin="-0.3333333333333333s" repeatCount="indefinite"></animate>
  </rect>
</g><g transform="rotate(240 50 50)">
  <rect x="42.5" y="22.5" rx="7.5" ry="7.5" width="15" height="15" fill="#96aec0">
    <animate attributeName="opacity" values="1;0" keyTimes="0;1" dur="1s" begin="-0.3s" repeatCount="indefinite"></animate>
  </rect>
</g><g transform="rotate(252 50 50)">
  <rect x="42.5" y="22.5" rx="7.5" ry="7.5" width="15" height="15" fill="#96aec0">
    <animate attributeName="opacity" values="1;0" keyTimes="0;1" dur="1s" begin="-0.26666666666666666s" repeatCount="indefinite"></animate>
  </rect>
</g><g transform="rotate(264 50 50)">
  <rect x="42.5" y="22.5" rx="7.5" ry="7.5" width="15" height="15" fill="#96aec0">
    <animate attributeName="opacity" values="1;0" keyTimes="0;1" dur="1s" begin="-0.23333333333333334s" repeatCount="indefinite"></animate>
  </rect>
</g><g transform="rotate(276 50 50)">
  <rect x="42.5" y="22.5" rx="7.5" ry="7.5" width="15" height="15" fill="#96aec0">
    <animate attributeName="opacity" values="1;0" keyTimes="0;1" dur="1s" begin="-0.2s" repeatCount="indefinite"></animate>
  </rect>
</g><g transform="rotate(288 50 50)">
  <rect x="42.5" y="22.5" rx="7.5" ry="7.5" width="15" height="15" fill="#96aec0">
    <animate attributeName="opacity" values="1;0" keyTimes="0;1" dur="1s" begin="-0.16666666666666666s" repeatCount="indefinite"></animate>
  </rect>
</g><g transform="rotate(300 50 50)">
  <rect x="42.5" y="22.5" rx="7.5" ry="7.5" width="15" height="15" fill="#96aec0">
    <animate attributeName="opacity" values="1;0" keyTimes="0;1" dur="1s" begin="-0.13333333333333333s" repeatCount="indefinite"></animate>
  </rect>
</g><g transform="rotate(312 50 50)">
  <rect x="42.5" y="22.5" rx="7.5" ry="7.5" width="15" height="15" fill="#96aec0">
    <animate attributeName="opacity" values="1;0" keyTimes="0;1" dur="1s" begin="-0.1s" repeatCount="indefinite"></animate>
  </rect>
</g><g transform="rotate(324 50 50)">
  <rect x="42.5" y="22.5" rx="7.5" ry="7.5" width="15" height="15" fill="#96aec0">
    <animate attributeName="opacity" values="1;0" keyTimes="0;1" dur="1s" begin="-0.06666666666666667s" repeatCount="indefinite"></animate>
  </rect>
</g><g transform="rotate(336 50 50)">
  <rect x="42.5" y="22.5" rx="7.5" ry="7.5" width="15" height="15" fill="#96aec0">
    <animate attributeName="opacity" values="1;0" keyTimes="0;1" dur="1s" begin="-0.03333333333333333s" repeatCount="indefinite"></animate>
  </rect>
</g><g transform="rotate(348 50 50)">
  <rect x="42.5" y="22.5" rx="7.5" ry="7.5" width="15" height="15" fill="#96aec0">
    <animate attributeName="opacity" values="1;0" keyTimes="0;1" dur="1s" begin="0s" repeatCount="indefinite"></animate>
  </rect>
</g>
<!-- [ldio] generated by https://loading.io/ --></svg>